PathFileType	4	(X/Y/Z)	./resultDataOpenSim/trcMotMarkerGrf/sub06/qtm-14-04.trc
DataRate	CameraRate	NumFrames	NumMarkers	Units	OrigDataRate	OrigDataStartFrame	OrigNumFrames
250.000000	250.000000	12	24	m	250.000000	475	542
Frame#	Time	L.Toe.Tip			R.Toe.Tip			L.Ankle.Lat			R.Ankle.Lat			L.Ankle.Med			R.Ankle.Med			L.Heel			R.Heel			L.Knee.Lat			R.Knee.Lat			L.Knee.Med			R.Knee.Med			L.Thigh.Upper			R.Thigh.Upper			L.ASIS			R.ASIS			V.Sacral			L.Acromium			R.Acromium			C7			L.Elbow			R.Elbow			L.Wrist.Lat			R.Wrist.Lat
		X1	Y1	Z1	X2	Y2	Z2	X3	Y3	Z3	X4	Y4	Z4	X5	Y5	Z5	X6	Y6	Z6	X7	Y7	Z7	X8	Y8	Z8	X9	Y9	Z9	X10	Y10	Z10	X11	Y11	Z11	X12	Y12	Z12	X13	Y13	Z13	X14	Y14	Z14	X15	Y15	Z15	X16	Y16	Z16	X17	Y17	Z17	X18	Y18	Z18	X19	Y19	Z19	X20	Y20	Z20	X21	Y21	Z21	X22	Y22	Z22	X23	Y23	Z23	X24	Y24	Z24

475	1.896	1.6652672	0.033130925	-0.13983768	1.2725624	0.085457893	0.09317486	1.5399437	0.066379982	-0.15495705	1.2436822	0.22068743	0.11078504	1.5422493	0.081042764	-0.068439792	1.2749342	0.21085478	0.028562148	1.4665326	0.041658583	-0.10607018	1.2010017	0.25446174	0.045726699	1.6249058	0.43276435	-0.18081582	1.5599457	0.42141736	0.12359906	1.5989571	0.43340991	-0.06103881	1.5484678	0.39725722	-0.008298659	1.4911055	0.80749629	-0.23506829	1.44326	0.7692723	0.1083836	1.5548967	0.84789174	-0.18180497	1.5352862	0.83392192	0.065699863	1.3564071	0.91609002	-0.061152869	1.4926184	1.309085	-0.26260567	1.4819208	1.3179813	0.10196277	1.4072956	1.355912	-0.084746246	1.4269567	0.988459	-0.29574622	1.4333398	1.0028233	0.1971308	1.594482	0.80745572	-0.3408042	1.6377728	0.86589046	0.16558158
476	1.9	1.6652653	0.033137499	-0.139859	1.2878907	0.084649685	0.092231356	1.5399315	0.066551047	-0.15492876	1.2560349	0.21909562	0.11016271	1.5422367	0.081260489	-0.068448494	1.2873805	0.20998521	0.027864703	1.4665313	0.041880204	-0.10600857	1.2125015	0.25211753	0.045378698	1.6255201	0.43293265	-0.18061173	1.5696025	0.42470228	0.12238404	1.599228	0.4335873	-0.060841666	1.5577948	0.4007049	-0.0094471291	1.495115	0.80889973	-0.23558734	1.4522028	0.7711363	0.10784198	1.5590976	0.84941847	-0.18266537	1.5400974	0.83608772	0.064783024	1.3612792	0.91785269	-0.061632539	1.4973311	1.3112503	-0.26305726	1.4861274	1.3198607	0.10147879	1.4118171	1.3577069	-0.085253929	1.4342488	0.98968156	-0.29653502	1.4353215	1.0051233	0.19618532	1.6064452	0.8120989	-0.33974389	1.6371263	0.86429551	0.16659242
477	1.904	1.6652755	0.033148517	-0.13988487	1.3034954	0.083839579	0.091291614	1.5399179	0.066739218	-0.15490221	1.2682251	0.21749558	0.10951197	1.5422508	0.081475584	-0.068473227	1.2998333	0.20900446	0.027135039	1.4665507	0.042114913	-0.10596318	1.2240163	0.24955876	0.045039452	1.6261089	0.43310875	-0.1803929	1.5791145	0.42802354	0.12113853	1.5994377	0.43377274	-0.060651742	1.5670045	0.40426015	-0.010605058	1.4992242	0.81032414	-0.23606991	1.4593793	0.77323445	0.10743292	1.5633131	0.85099011	-0.18348236	1.5449463	0.8382829	0.06386929	1.3663254	0.91958786	-0.062190867	1.5020353	1.3134189	-0.26350302	1.4903647	1.3217451	0.10099913	1.4163102	1.3594864	-0.085766347	1.4415168	0.99096273	-0.29737432	1.4372848	1.0074501	0.19522643	1.618002	0.8169143	-0.33866831	1.6364055	0.86280545	0.1676327
478	1.908	1.6652984	0.033161683	-0.1399132	1.319424	0.083049352	0.090374316	1.5399052	0.066938217	-0.15488301	1.2804137	0.21580303	0.10884598	1.542329	0.081685464	-0.068514043	1.3122386	0.20791038	0.026338916	1.4665979	0.042363229	-0.10592885	1.2355549	0.24677617	0.044702449	1.6266725	0.43329181	-0.18016317	1.588497	0.43138066	0.11985867	1.5996096	0.43397879	-0.060465511	1.5761849	0.40789876	-0.011750207	1.5034419	0.81176825	-0.23653353	1.4632191	0.77573823	0.1074747	1.5676344	0.85260238	-0.18423264	1.5498481	0.8405002	0.062963044	1.3714236	0.92128025	-0.062826087	1.5067044	1.3155692	-0.26392526	1.4946307	1.3236515	0.10053393	1.4207779	1.3612437	-0.086289062	1.4487668	0.99228727	-0.29827248	1.4392263	1.0098005	0.19424952	1.6292038	0.82187569	-0.33757051	1.6356292	0.86141771	0.16870295
479	1.912	1.6653318	0.033173324	-0.13994458	1.3355783	0.082268844	0.089458349	1.5398974	0.067144496	-0.1548764	1.2926869	0.21396926	0.1081668	1.5424767	0.081904995	-0.068564693	1.3245344	0.20669679	0.025449363	1.4666668	0.042626018	-0.10590075	1.2471404	0.24377217	0.044353145	1.6271873	0.43347846	-0.17994307	1.59775	0.43476434	0.1185434	1.5997519	0.43421411	-0.060279612	1.585398	0.41162521	-0.012877727	1.5076826	0.81319269	-0.23702078	1.4648768	0.77852703	0.10790871	1.5721603	0.85423134	-0.18489115	1.5547942	0.8427418	0.062058009	1.3763396	0.92292672	-0.063475525	1.511327	1.3177011	-0.26431277	1.4989014	1.3255644	0.10008003	1.4252215	1.3629753	-0.086822656	1.4560109	0.99364912	-0.29923771	1.4411654	1.0121661	0.19325725	1.6403144	0.82695549	-0.33641038	1.6348128	0.86012599	0.16979767
480	1.916	1.6653722	0.033180896	-0.13998014	1.3518021	0.081472027	0.088526192	1.5398993	0.067358451	-0.15488531	1.3050652	0.2119768	0.1074762	1.5426619	0.082150979	-0.06861514	1.3367588	0.20535762	0.024490478	1.4667464	0.04289701	-0.10587406	1.2587943	0.24055943	0.043980751	1.6276437	0.4336634	-0.17974612	1.6068604	0.43815301	0.11720265	1.599865	0.43447945	-0.06009353	1.5946672	0.41544958	-0.014006827	1.5119892	0.81456981	-0.23748485	1.4667539	0.7813546	0.10840615	1.5768173	0.85583704	-0.18546944	1.5597422	0.84501162	0.061150496	1.3809679	0.9245529	-0.064071138	1.515917	1.3198216	-0.26466915	1.5031469	1.3274375	0.099622916	1.4296421	1.3646792	-0.087358995	1.4632569	0.99504769	-0.3002581	1.4431323	1.014528	0.19225836	1.6516619	0.83213156	-0.33513475	1.6339607	0.85892434	0.17091294
481	1.92	1.6654147	0.033185587	-0.14001956	1.3680212	0.080642342	0.087589321	1.539914	0.067581847	-0.15490901	1.3175426	0.20981721	0.10677744	1.5428399	0.082426947	-0.068658746	1.3491147	0.20389761	0.023562446	1.4668279	0.043170899	-0.10584128	1.2705387	0.23715407	0.043580196	1.6280699	0.43384507	-0.17956414	1.6158105	0.44152457	0.11585013	1.5999571	0.43476893	-0.059912291	1.6040393	0.41934547	-0.015163695	1.5165043	0.81590973	-0.23781961	1.4700111	0.78410525	0.10877513	1.5812895	0.85737665	-0.18603214	1.5646662	0.84730572	0.060247409	1.3854014	0.92618823	-0.06458279	1.520493	1.3219284	-0.26500217	1.5073594	1.3292377	0.099160878	1.4340438	1.3663511	-0.087885413	1.4704924	0.99648097	-0.30128461	1.445121	1.0168671	0.1912672	1.6632158	0.83739975	-0.33374116	1.6330699	0.85780952	0.17205129
482	1.924	1.6654561	0.033191029	-0.14006072	1.3843101	0.079787508	0.086670462	1.5399397	0.067815717	-0.15493926	1.3301181	0.20749464	0.10607581	1.5429939	0.082722528	-0.068698245	1.3617773	0.20232621	0.02274814	1.4669101	0.043456364	-0.10579361	1.2823849	0.23356953	0.043150441	1.6284965	0.43402611	-0.17938088	1.6245833	0.44487067	0.11448868	1.6000494	0.43507657	-0.059744414	1.6133504	0.42326914	-0.016348023	1.5211605	0.8172208	-0.23802689	1.473973	0.78686694	0.10911253	1.5853516	0.85884508	-0.18662525	1.5695861	0.84960983	0.059364823	1.3897799	0.92784345	-0.065013067	1.525064	1.3240149	-0.26531382	1.5115509	1.3309656	0.098709782	1.4384294	1.367986	-0.088389997	1.4776767	0.99794867	-0.30225181	1.4470397	1.0191803	0.19030348	1.6745551	0.84277779	-0.33228717	1.6321329	0.85678148	0.17321317
483	1.928	1.6654963	0.033199609	-0.14010014	1.4008592	0.078944367	0.08579386	1.5399712	0.068060204	-0.15496307	1.3428093	0.20502515	0.10537297	1.5431433	0.08302387	-0.068741872	1.3746808	0.20064179	0.022013205	1.4669978	0.04377186	-0.10572531	1.2943002	0.22981597	0.042694386	1.6289173	0.43420926	-0.17919177	1.6331833	0.44819674	0.11311226	1.6001578	0.43540478	-0.059592017	1.6221227	0.42719063	-0.017521363	1.525717	0.81849594	-0.23820613	1.4776895	0.78974502	0.10954911	1.589174	0.86028452	-0.18721466	1.5745335	0.85190813	0.058517606	1.3941886	0.92950883	-0.065382043	1.5296316	1.3260801	-0.26560237	1.5157298	1.3326387	0.098281726	1.4427984	1.3695807	-0.088867791	1.4847722	0.99945369	-0.30312523	1.4487688	1.0214767	0.18937998	1.6853315	0.84828515	-0.33082693	1.631146	0.85584027	0.17439659
484	1.932	1.6655369	0.033210164	-0.14013589	1.4177436	0.078147058	0.084971387	1.5400055	0.068315626	-0.15497341	1.3556455	0.20242285	0.10466812	1.5433083	0.083328171	-0.068792261	1.3876487	0.1988363	0.021272423	1.4670971	0.044127263	-0.10563703	1.3062177	0.22590669	0.042217476	1.6293044	0.43439563	-0.17900635	1.6416344	0.45150737	0.1117172	1.6002517	0.4357695	-0.059439979	1.6299921	0.43108747	-0.018632507	1.5300464	0.81972802	-0.23842097	1.4813467	0.79267003	0.10997868	1.5930694	0.86173216	-0.18774177	1.5794986	0.85419514	0.057709173	1.3986639	0.93116727	-0.065707646	1.5341947	1.3281262	-0.26586716	1.5198966	1.3342708	0.097874421	1.4471513	1.3711371	-0.089326196	1.4917962	1.0009926	-0.30393604	1.4503452	1.0237575	0.18848139	1.6956312	0.85390381	-0.32935732	1.6301173	0.85498409	0.1756024
485	1.936	1.6655792	0.033218995	-0.14016998	1.4347568	0.077389189	0.08418433	1.5400458	0.068583715	-0.1549721	1.3686489	0.19969712	0.1039622	1.5434943	0.083648942	-0.06884429	1.4006082	0.19691225	0.020489849	1.4672136	0.044514581	-0.10553533	1.3181471	0.22186972	0.041722748	1.6296425	0.43458514	-0.17883668	1.6499466	0.45479257	0.1103031	1.6002263	0.43620072	-0.059252148	1.6371235	0.43495455	-0.019643785	1.5341883	0.82090752	-0.23866749	1.4863622	0.79537701	0.11002628	1.5971289	0.86318666	-0.18819422	1.5844355	0.85647557	0.056931679	1.4032228	0.93281233	-0.065965327	1.5387526	1.3301501	-0.26611163	1.5240552	1.335865	0.097477446	1.4514927	1.3726645	-0.089780382	1.4988169	1.0025528	-0.30475944	1.4519939	1.0260128	0.18756789	1.7058743	0.85956897	-0.32782795	1.629062	0.85420749	0.17682714
486	1.94	1.6656261	0.03322336	-0.1402062	1.4516263	0.076644359	0.083402703	1.5400989	0.068868504	-0.15496104	1.3818185	0.19686203	0.10325357	1.5437185	0.084002387	-0.068893686	1.4135853	0.19488938	0.019664862	1.4673491	0.044917816	-0.1054256	1.3302724	0.21774536	0.041205109	1.629939	0.4347798	-0.17868712	1.6581123	0.45803017	0.10887015	1.5999762	0.43672612	-0.058991841	1.6439847	0.43881256	-0.020543686	1.538223	0.8220184	-0.23891111	1.4941486	0.79759442	0.10933772	1.6012235	0.86462319	-0.1886001	1.5893212	0.85875259	0.056178066	1.4078859	0.93445	-0.066057408	1.5433085	1.3321412	-0.26634294	1.5282136	1.3374174	0.097082771	1.4558282	1.3741697	-0.090237607	1.5058876	1.0041191	-0.30564518	1.4538866	1.0282409	0.18661619	1.7164031	0.86521931	-0.32619723	1.6279942	0.85350069	0.17806026
